# xmcd CD database file
#
# Track frame offsets:
#	157
#	22967
#	44602
#	55732
#	73202
#	82222
#	92367
#	128440
#	147485
#
# Disc length: 2182 seconds
#
# Revision: 2
# Processed by: cddbd v1.4PL0 Copyright (c) Steve Scherf et al.
# Submitted via: Feurio! 1.65 - http://www.feurio.com
#
DISCID=79088409
DTITLE=Mick Abrahams Band  - At Last
DYEAR=1900
DGENRE=blues
TTITLE0=When I Get Back
TTITLE1=Absent Friends
TTITLE2=Time Now To Decide
TTITLE3=Whole Wide World
TTITLE4=Up And Down (Part 1)
TTITLE5=Up And Down (Part 2)
TTITLE6=Maybe Because
TTITLE7=The Good Old Days
TTITLE8=You'll Never Get It From Me
EXTD=
EXTT0=
EXTT1=
EXTT2=
EXTT3=
EXTT4=
EXTT5=
EXTT6=
EXTT7=
EXTT8=
PLAYORDER=
